# xmcd CD database file
#
# Track frame offsets:
#	150
#	14254
#	23327
#	33605
#	46443
#	58657
#	70787
#	85131
#	96060
#	110212
#	124119
#	134266
#	146112
#	158106
#	167864
#	179394
#	185058
#	194229
#	201238
#	212469
#	221766
#	236465
#	249198
#	260950
#	270737
#	283218
#	292685
#
# Disc length: 4082 seconds
#
# Revision: 0
# Processed by: cddbd v1.5.2PL0 Copyright (c) Steve Scherf et al.
# Submitted via: CDex 1.51
#
DISCID=a20ff01b
DTITLE=Willie Nelson - Reflections - CD 2
DYEAR=2006
DGENRE=Country
TTITLE0=Home Is Where Your Happy
TTITLE1=Why Are You Picking On Me
TTITLE2=Broken Promises
TTITLE3=She's Not For You
TTITLE4=Following Me Around
TTITLE5=End Of Understanding
TTITLE6=Rainy Day Blues
TTITLE7=Blame It On The Time
TTITLE8=So Much To Do
TTITLE9=No Tomorrow In Sight
TTITLE10=A New Way To Cry
TTITLE11=I'll Stay Around
TTITLE12=Happiness Lives Next Door
TTITLE13=Let's Pretend
TTITLE14=I'm Going To Loose A Lot Of Teardrops
TTITLE15=The Ghost
TTITLE16=Waiting Time
TTITLE17=Both Ends Of The Candle
TTITLE18=Go Away
TTITLE19=Right From Wrong
TTITLE20=What Can You Do To Me Now
TTITLE21=The Storm Has Just Begun
TTITLE22=What A Way To Live
TTITLE23=Ashamed
TTITLE24=Shelter Of Your Arms
TTITLE25=One Step Beyond
TTITLE26=If You Can't Undo The Wrongs, Undo The Rights
EXTD=YEAR: 2006
EXTT0=
EXTT1=
EXTT2=
EXTT3=
EXTT4=
EXTT5=
EXTT6=
EXTT7=
EXTT8=
EXTT9=
EXTT10=
EXTT11=
EXTT12=
EXTT13=
EXTT14=
EXTT15=
EXTT16=
EXTT17=
EXTT18=
EXTT19=
EXTT20=
EXTT21=
EXTT22=
EXTT23=
EXTT24=
EXTT25=
EXTT26=
PLAYORDER=
